<svg width="128" height="128" viewBox="0 0 128 128" fill="none" xmlns="http://www.w3.org/2000/svg">
<rect width="128" height="128" rx="64" fill="black" fill-opacity="0.24"/>
<path fill-rule="evenodd" clip-rule="evenodd" d="M38.8438 40.7902C38.8438 27.0969 50.1054 16 64.0019 16C77.8985 16 89.1685 27.0969 89.1685 40.7902C89.1685 54.4918 77.8985 65.5887 64.0019 65.5887C50.1054 65.5887 38.8438 54.4918 38.8438 40.7902ZM64.1818 117.333C80.7962 117.333 95.8319 110.779 106.669 100.235V92.7546C106.669 83.7096 99.0319 76.3688 89.6026 76.3688H38.4026C28.9733 76.3688 21.3359 83.7096 21.3359 92.7546V99.8579C32.1989 110.615 47.3797 117.333 64.1818 117.333Z" fill="white"/>
</svg>
