<svg width="14" height="14" viewBox="0 0 14 14" fill="none" xmlns="http://www.w3.org/2000/svg">
<path fill-rule="evenodd" clip-rule="evenodd" d="M1.75 13.5625V1.75C1.75 1.28587 1.93437 0.840752 2.26256 0.512563C2.59075 0.184375 3.03587 0 3.5 0L10.5 0C10.9641 0 11.4092 0.184375 11.7374 0.512563C12.0656 0.840752 12.25 1.28587 12.25 1.75V13.5625C12.2501 13.6385 12.2303 13.7132 12.1928 13.7792C12.1552 13.8452 12.1011 13.9003 12.0357 13.9391C11.9704 13.9779 11.8961 13.9989 11.8201 14.0003C11.7441 14.0016 11.6691 13.9831 11.6025 13.9466L7 11.4354L2.3975 13.9466C2.33085 13.9831 2.25585 14.0016 2.17989 14.0003C2.10393 13.9989 2.02962 13.9779 1.96428 13.9391C1.89894 13.9003 1.84482 13.8452 1.80725 13.7792C1.76967 13.7132 1.74994 13.6385 1.75 13.5625ZM5.99725 4.50275C5.95657 4.46207 5.90828 4.42981 5.85514 4.40779C5.80199 4.38578 5.74503 4.37445 5.6875 4.37445C5.62997 4.37445 5.57301 4.38578 5.51986 4.40779C5.46672 4.42981 5.41843 4.46207 5.37775 4.50275C5.33707 4.54343 5.30481 4.59172 5.28279 4.64486C5.26078 4.69801 5.24945 4.75497 5.24945 4.8125C5.24945 4.87003 5.26078 4.92699 5.28279 4.98014C5.30481 5.03328 5.33707 5.08157 5.37775 5.12225L6.38138 6.125L5.37775 7.12775C5.33707 7.16843 5.30481 7.21672 5.28279 7.26986C5.26078 7.32301 5.24945 7.37997 5.24945 7.4375C5.24945 7.49503 5.26078 7.55199 5.28279 7.60514C5.30481 7.65828 5.33707 7.70657 5.37775 7.74725C5.41843 7.78793 5.46672 7.82019 5.51986 7.84221C5.57301 7.86422 5.62997 7.87555 5.6875 7.87555C5.74503 7.87555 5.80199 7.86422 5.85514 7.84221C5.90828 7.82019 5.95657 7.78793 5.99725 7.74725L7 6.74362L8.00275 7.74725C8.0849 7.8294 8.19632 7.87555 8.3125 7.87555C8.42868 7.87555 8.5401 7.8294 8.62225 7.74725C8.7044 7.6651 8.75055 7.55368 8.75055 7.4375C8.75055 7.32132 8.7044 7.2099 8.62225 7.12775L7.61862 6.125L8.62225 5.12225C8.7044 5.0401 8.75055 4.92868 8.75055 4.8125C8.75055 4.69632 8.7044 4.5849 8.62225 4.50275C8.5401 4.4206 8.42868 4.37445 8.3125 4.37445C8.19632 4.37445 8.0849 4.4206 8.00275 4.50275L7 5.50638L5.99725 4.50275Z" fill="black"/>
</svg>
