<svg width="12" height="12" viewBox="0 0 12 12" fill="none" xmlns="http://www.w3.org/2000/svg">
    <path d="M0.96959 0.969689C1.11024 0.829085 1.30097 0.750099 1.49984 0.750099C1.69871 0.750099 1.88944 0.829085 2.03009 0.969689L5.99984 4.93944L9.96959 0.969689C10.0388 0.898056 10.1215 0.840919 10.213 0.801613C10.3045 0.762306 10.403 0.741616 10.5025 0.740751C10.6021 0.739886 10.7009 0.758862 10.7931 0.796573C10.8852 0.834283 10.969 0.889973 11.0394 0.960393C11.1098 1.03081 11.1655 1.11455 11.2032 1.20672C11.2409 1.2989 11.2599 1.39766 11.259 1.49724C11.2582 1.59682 11.2375 1.69524 11.1982 1.78674C11.1589 1.87825 11.1017 1.961 11.0301 2.03019L7.06034 5.99994L11.0301 9.96969C11.1667 10.1111 11.2423 10.3006 11.2406 10.4972C11.2389 10.6939 11.16 10.882 11.021 11.0211C10.8819 11.1601 10.6938 11.239 10.4971 11.2407C10.3005 11.2424 10.111 11.1668 9.96959 11.0302L5.99984 7.06044L2.03009 11.0302C1.88864 11.1668 1.69919 11.2424 1.50254 11.2407C1.30589 11.239 1.11778 11.1601 0.978726 11.0211C0.83967 10.882 0.760793 10.6939 0.759084 10.4972C0.757376 10.3006 0.832971 10.1111 0.96959 9.96969L4.93934 5.99994L0.96959 2.03019C0.828987 1.88954 0.75 1.69881 0.75 1.49994C0.75 1.30107 0.828987 1.11033 0.96959 0.969689Z"
          fill="currentColor"/>
</svg>
