<svg width="48" height="48" viewBox="0 0 48 48" fill="none" xmlns="http://www.w3.org/2000/svg">
<rect width="48" height="48" rx="24" fill="black"/>
<path d="M35.2531 14.91C35.3932 15.0506 35.4719 15.241 35.4719 15.4395C35.4719 15.638 35.3932 15.8284 35.2531 15.969L33.6886 17.535L30.6886 14.535L32.2531 12.969C32.3937 12.8284 32.5844 12.7494 32.7833 12.7494C32.9822 12.7494 33.1729 12.8284 33.3136 12.969L35.2531 14.9085V14.91ZM32.6281 18.594L29.6281 15.594L19.4086 25.815C19.326 25.8975 19.2639 25.9982 19.2271 26.109L18.0196 29.73C17.9977 29.796 17.9946 29.8668 18.0106 29.9345C18.0266 30.0022 18.0611 30.0641 18.1103 30.1132C18.1595 30.1624 18.2214 30.197 18.2891 30.213C18.3567 30.229 18.4275 30.2259 18.4936 30.204L22.1146 28.9965C22.2252 28.9602 22.3259 28.8985 22.4086 28.8165L32.6281 18.5955V18.594Z" fill="#FFFFD3"/>
<path fill-rule="evenodd" clip-rule="evenodd" d="M13.5 32.25C13.5 32.8467 13.7371 33.419 14.159 33.841C14.581 34.2629 15.1533 34.5 15.75 34.5H32.25C32.8467 34.5 33.419 34.2629 33.841 33.841C34.2629 33.419 34.5 32.8467 34.5 32.25V23.25C34.5 23.0511 34.421 22.8603 34.2803 22.7197C34.1397 22.579 33.9489 22.5 33.75 22.5C33.5511 22.5 33.3603 22.579 33.2197 22.7197C33.079 22.8603 33 23.0511 33 23.25V32.25C33 32.4489 32.921 32.6397 32.7803 32.7803C32.6397 32.921 32.4489 33 32.25 33H15.75C15.5511 33 15.3603 32.921 15.2197 32.7803C15.079 32.6397 15 32.4489 15 32.25V15.75C15 15.5511 15.079 15.3603 15.2197 15.2197C15.3603 15.079 15.5511 15 15.75 15H25.5C25.6989 15 25.8897 14.921 26.0303 14.7803C26.171 14.6397 26.25 14.4489 26.25 14.25C26.25 14.0511 26.171 13.8603 26.0303 13.7197C25.8897 13.579 25.6989 13.5 25.5 13.5H15.75C15.1533 13.5 14.581 13.7371 14.159 14.159C13.7371 14.581 13.5 15.1533 13.5 15.75V32.25Z" fill="#FFFFD3"/>
</svg>
