<svg width="24" height="24" viewBox="0 0 24 24" fill="none" xmlns="http://www.w3.org/2000/svg">
<path d="M12 22.5C9.21523 22.5 6.54451 21.3938 4.57538 19.4246C2.60625 17.4555 1.5 14.7848 1.5 12C1.5 9.21523 2.60625 6.54451 4.57538 4.57538C6.54451 2.60625 9.21523 1.5 12 1.5C14.7848 1.5 17.4555 2.60625 19.4246 4.57538C21.3938 6.54451 22.5 9.21523 22.5 12C22.5 14.7848 21.3938 17.4555 19.4246 19.4246C17.4555 21.3938 14.7848 22.5 12 22.5ZM12 24C15.1826 24 18.2348 22.7357 20.4853 20.4853C22.7357 18.2348 24 15.1826 24 12C24 8.8174 22.7357 5.76516 20.4853 3.51472C18.2348 1.26428 15.1826 0 12 0C8.8174 0 5.76516 1.26428 3.51472 3.51472C1.26428 5.76516 0 8.8174 0 12C0 15.1826 1.26428 18.2348 3.51472 20.4853C5.76516 22.7357 8.8174 24 12 24Z" fill="black"/>
<path d="M6.96839 6.96888C7.03806 6.89903 7.12082 6.84362 7.21194 6.80581C7.30305 6.768 7.40074 6.74854 7.49939 6.74854C7.59804 6.74854 7.69572 6.768 7.78684 6.80581C7.87796 6.84362 7.96072 6.89903 8.03039 6.96888L11.9994 10.9394L15.9684 6.96888C16.0381 6.89914 16.1209 6.84383 16.212 6.80609C16.3031 6.76835 16.4008 6.74893 16.4994 6.74893C16.598 6.74893 16.6957 6.76835 16.7868 6.80609C16.8779 6.84383 16.9607 6.89914 17.0304 6.96888C17.1001 7.03861 17.1554 7.12139 17.1932 7.2125C17.2309 7.30361 17.2503 7.40126 17.2503 7.49988C17.2503 7.59849 17.2309 7.69614 17.1932 7.78725C17.1554 7.87836 17.1001 7.96114 17.0304 8.03088L13.0599 11.9999L17.0304 15.9689C17.1001 16.0386 17.1554 16.1214 17.1932 16.2125C17.2309 16.3036 17.2503 16.4013 17.2503 16.4999C17.2503 16.5985 17.2309 16.6961 17.1932 16.7873C17.1554 16.8784 17.1001 16.9611 17.0304 17.0309C16.9607 17.1006 16.8779 17.1559 16.7868 17.1937C16.6957 17.2314 16.598 17.2508 16.4994 17.2508C16.4008 17.2508 16.3031 17.2314 16.212 17.1937C16.1209 17.1559 16.0381 17.1006 15.9684 17.0309L11.9994 13.0604L8.03039 17.0309C7.96066 17.1006 7.87787 17.1559 7.78676 17.1937C7.69565 17.2314 7.598 17.2508 7.49939 17.2508C7.40077 17.2508 7.30312 17.2314 7.21201 17.1937C7.1209 17.1559 7.03812 17.1006 6.96839 17.0309C6.89866 16.9611 6.84334 16.8784 6.8056 16.7873C6.76786 16.6961 6.74844 16.5985 6.74844 16.4999C6.74844 16.4013 6.76786 16.3036 6.8056 16.2125C6.84334 16.1214 6.89866 16.0386 6.96839 15.9689L10.9389 11.9999L6.96839 8.03088C6.89854 7.96121 6.84313 7.87844 6.80532 7.78733C6.76751 7.69621 6.74805 7.59853 6.74805 7.49988C6.74805 7.40122 6.76751 7.30354 6.80532 7.21242C6.84313 7.12131 6.89854 7.03854 6.96839 6.96888Z" fill="black"/>
</svg>
