<svg width="32" height="32" viewBox="0 0 32 32" fill="none" xmlns="http://www.w3.org/2000/svg">
<path d="M0.00390625 6C0.00390625 4.93913 0.425334 3.92172 1.17548 3.17157C1.92562 2.42143 2.94304 2 4.00391 2H28.0039C29.0648 2 30.0822 2.42143 30.8323 3.17157C31.5825 3.92172 32.0039 4.93913 32.0039 6V26C32.0039 27.0609 31.5825 28.0783 30.8323 28.8284C30.0822 29.5786 29.0648 30 28.0039 30H4.00391C2.94304 30 1.92562 29.5786 1.17548 28.8284C0.425334 28.0783 0.00390625 27.0609 0.00390625 26V6ZM2.00391 24V26C2.00391 26.5304 2.21462 27.0391 2.58969 27.4142C2.96477 27.7893 3.47347 28 4.00391 28H28.0039C28.5343 28 29.043 27.7893 29.4181 27.4142C29.7932 27.0391 30.0039 26.5304 30.0039 26V19L22.4499 15.106C22.2624 15.012 22.05 14.9795 21.8429 15.0128C21.6358 15.0462 21.4444 15.1439 21.2959 15.292L13.8759 22.712L8.55591 19.168C8.36383 19.0401 8.13343 18.9826 7.90378 19.0052C7.67414 19.0278 7.45937 19.1291 7.29591 19.292L2.00391 24ZM12.0039 11C12.0039 10.2044 11.6878 9.44129 11.1252 8.87868C10.5626 8.31607 9.79956 8 9.00391 8C8.20826 8 7.44519 8.31607 6.88259 8.87868C6.31998 9.44129 6.00391 10.2044 6.00391 11C6.00391 11.7956 6.31998 12.5587 6.88259 13.1213C7.44519 13.6839 8.20826 14 9.00391 14C9.79956 14 10.5626 13.6839 11.1252 13.1213C11.6878 12.5587 12.0039 11.7956 12.0039 11Z" fill="black"/>
</svg>
