<svg width="136" height="32" viewBox="0 0 136 32" fill="none" xmlns="http://www.w3.org/2000/svg">
<path d="M126.509 25.5795C125.581 25.5795 124.758 25.4249 124.038 25.1155C123.325 24.7999 122.76 24.3264 122.343 23.6951C121.933 23.0574 121.728 22.2588 121.728 21.2992C121.728 20.4912 121.87 19.8093 122.154 19.2538C122.438 18.6982 122.829 18.2469 123.328 17.8996C123.827 17.5524 124.401 17.2904 125.051 17.1136C125.701 16.9306 126.395 16.8075 127.134 16.7443C127.961 16.6686 128.626 16.5897 129.131 16.5076C129.636 16.4192 130.002 16.2961 130.23 16.1383C130.463 15.9741 130.58 15.7437 130.58 15.447V15.3996C130.58 14.9135 130.413 14.5379 130.078 14.2727C129.744 14.0076 129.292 13.875 128.724 13.875C128.112 13.875 127.62 14.0076 127.247 14.2727C126.875 14.5379 126.638 14.9041 126.537 15.3712L122.268 15.2197C122.394 14.3359 122.719 13.5467 123.243 12.8523C123.773 12.1515 124.499 11.6023 125.42 11.2046C126.348 10.8005 127.462 10.5985 128.762 10.5985C129.69 10.5985 130.545 10.709 131.328 10.9299C132.11 11.1446 132.792 11.4603 133.373 11.8769C133.953 12.2873 134.401 12.7923 134.717 13.3921C135.039 13.9918 135.2 14.6768 135.2 15.447V25.3333H130.845V23.3068H130.731C130.473 23.7992 130.141 24.2159 129.737 24.5568C129.34 24.8977 128.869 25.1534 128.327 25.3239C127.79 25.4943 127.184 25.5795 126.509 25.5795ZM127.939 22.5492C128.437 22.5492 128.885 22.4482 129.283 22.2462C129.687 22.0442 130.009 21.7664 130.249 21.4129C130.488 21.053 130.608 20.6364 130.608 20.1629V18.7803C130.476 18.8498 130.315 18.9129 130.125 18.9697C129.942 19.0265 129.74 19.0802 129.52 19.1307C129.299 19.1812 129.071 19.2254 128.838 19.2633C128.604 19.3011 128.38 19.3359 128.166 19.3674C127.73 19.4369 127.358 19.5442 127.049 19.6894C126.746 19.8346 126.512 20.024 126.348 20.2576C126.19 20.4849 126.111 20.7563 126.111 21.072C126.111 21.5518 126.282 21.9179 126.623 22.1705C126.97 22.423 127.408 22.5492 127.939 22.5492Z" fill="#2B823F"/>
<path d="M111.954 25.5795C111.026 25.5795 110.203 25.4249 109.483 25.1155C108.77 24.7999 108.205 24.3264 107.789 23.6951C107.378 23.0574 107.173 22.2588 107.173 21.2992C107.173 20.4912 107.315 19.8093 107.599 19.2538C107.883 18.6982 108.275 18.2469 108.773 17.8996C109.272 17.5524 109.846 17.2904 110.496 17.1136C111.146 16.9306 111.841 16.8075 112.579 16.7443C113.406 16.6686 114.072 16.5897 114.577 16.5076C115.082 16.4192 115.448 16.2961 115.675 16.1383C115.908 15.9741 116.025 15.7437 116.025 15.447V15.3996C116.025 14.9135 115.858 14.5379 115.523 14.2727C115.189 14.0076 114.738 13.875 114.17 13.875C113.557 13.875 113.065 14.0076 112.693 14.2727C112.32 14.5379 112.084 14.9041 111.983 15.3712L107.713 15.2197C107.839 14.3359 108.164 13.5467 108.688 12.8523C109.218 12.1515 109.944 11.6023 110.866 11.2046C111.793 10.8005 112.907 10.5985 114.207 10.5985C115.135 10.5985 115.99 10.709 116.773 10.9299C117.556 11.1446 118.237 11.4603 118.818 11.8769C119.399 12.2873 119.847 12.7923 120.162 13.3921C120.484 13.9918 120.645 14.6768 120.645 15.447V25.3333H116.29V23.3068H116.177C115.918 23.7992 115.587 24.2159 115.183 24.5568C114.785 24.8977 114.315 25.1534 113.772 25.3239C113.236 25.4943 112.63 25.5795 111.954 25.5795ZM113.384 22.5492C113.882 22.5492 114.331 22.4482 114.728 22.2462C115.132 22.0442 115.454 21.7664 115.694 21.4129C115.934 21.053 116.054 20.6364 116.054 20.1629V18.7803C115.921 18.8498 115.76 18.9129 115.571 18.9697C115.388 19.0265 115.186 19.0802 114.965 19.1307C114.744 19.1812 114.517 19.2254 114.283 19.2633C114.05 19.3011 113.826 19.3359 113.611 19.3674C113.176 19.4369 112.803 19.5442 112.494 19.6894C112.191 19.8346 111.957 20.024 111.793 20.2576C111.636 20.4849 111.557 20.7563 111.557 21.072C111.557 21.5518 111.727 21.9179 112.068 22.1705C112.415 22.423 112.854 22.5492 113.384 22.5492Z" fill="#2B823F"/>
<path d="M97.1796 25.5417C96.1066 25.5417 95.1315 25.2639 94.2542 24.7084C93.3769 24.1528 92.6763 23.3195 92.1525 22.2084C91.6286 21.0972 91.3667 19.7178 91.3667 18.0701C91.3667 16.3593 91.6381 14.9514 92.1809 13.8466C92.7237 12.7418 93.4337 11.9243 94.311 11.394C95.1946 10.8637 96.1445 10.5985 97.1606 10.5985C97.9243 10.5985 98.5775 10.7311 99.1203 10.9963C99.6631 11.2551 100.111 11.5897 100.465 12C100.818 12.4104 101.086 12.8365 101.269 13.2785H101.364V5.93945H105.994V25.3333H101.411V22.9754H101.269C101.074 23.4236 100.796 23.8435 100.436 24.2349C100.077 24.6263 99.6253 24.9419 99.0825 25.1818C98.546 25.4217 97.9117 25.5417 97.1796 25.5417ZM98.789 21.9337C99.3507 21.9337 99.8304 21.7759 100.228 21.4603C100.626 21.1383 100.932 20.6869 101.146 20.1061C101.361 19.5253 101.468 18.8435 101.468 18.0606C101.468 17.2652 101.361 16.5802 101.146 16.0057C100.938 15.4312 100.632 14.9893 100.228 14.68C99.8304 14.3706 99.3507 14.216 98.789 14.216C98.2146 14.216 97.7287 14.3738 97.331 14.6894C96.9334 15.0051 96.6305 15.4502 96.4222 16.0247C96.2202 16.5992 96.1192 17.2778 96.1192 18.0606C96.1192 18.8435 96.2234 19.5253 96.4317 20.1061C96.6399 20.6869 96.9397 21.1383 97.331 21.4603C97.7287 21.7759 98.2146 21.9337 98.789 21.9337Z" fill="#2B823F"/>
<path d="M76.3003 25.6079C74.7793 25.6079 73.4665 25.3081 72.362 24.7083C71.2638 24.1023 70.4181 23.2405 69.8248 22.1231C69.2378 20.9994 68.9443 19.6641 68.9443 18.1174C68.9443 16.6149 69.241 15.3018 69.8343 14.178C70.4275 13.048 71.2638 12.1705 72.3431 11.5455C73.4223 10.9142 74.6941 10.5985 76.1583 10.5985C77.1934 10.5985 78.1401 10.7595 78.9985 11.0815C79.8569 11.4034 80.5985 11.8801 81.2233 12.5114C81.8481 13.1427 82.3341 13.9224 82.6812 14.8504C83.0284 15.7721 83.2019 16.8296 83.2019 18.0227V19.178H70.5632V16.4886H78.8944C78.8881 15.9962 78.7713 15.5575 78.5441 15.1724C78.3169 14.7873 78.0044 14.4874 77.6068 14.2727C77.2155 14.0518 76.7642 13.9413 76.253 13.9413C75.7355 13.9413 75.2716 14.0581 74.8613 14.2917C74.4511 14.519 74.1261 14.8315 73.8862 15.2292C73.6464 15.6206 73.5201 16.0657 73.5075 16.5644V19.3011C73.5075 19.8946 73.6243 20.4154 73.8578 20.8636C74.0913 21.3056 74.4227 21.6496 74.8519 21.8958C75.281 22.142 75.7923 22.2652 76.3856 22.2652C76.7958 22.2652 77.1682 22.2083 77.5027 22.0947C77.8372 21.9811 78.1244 21.8138 78.3642 21.5928C78.604 21.3718 78.7839 21.1004 78.9038 20.7784L83.1546 20.9015C82.9779 21.8548 82.5897 22.685 81.9901 23.392C81.3969 24.0928 80.6174 24.6389 79.6517 25.0303C78.6861 25.4154 77.569 25.6079 76.3003 25.6079Z" fill="#2B823F"/>
<path d="M61.3033 25.6079C59.7822 25.6079 58.4694 25.3081 57.3649 24.7083C56.2667 24.1023 55.421 23.2405 54.8277 22.1231C54.2407 20.9994 53.9473 19.6641 53.9473 18.1174C53.9473 16.6149 54.2439 15.3018 54.8372 14.178C55.4305 13.048 56.2667 12.1705 57.346 11.5455C58.4252 10.9142 59.697 10.5985 61.1613 10.5985C62.1963 10.5985 63.1431 10.7595 64.0014 11.0815C64.8598 11.4034 65.6014 11.8801 66.2262 12.5114C66.8511 13.1427 67.337 13.9224 67.6842 14.8504C68.0313 15.7721 68.2049 16.8296 68.2049 18.0227V19.178H55.5662V16.4886H63.8973C63.891 15.9962 63.7742 15.5575 63.547 15.1724C63.3198 14.7873 63.0074 14.4874 62.6097 14.2727C62.2184 14.0518 61.7672 13.9413 61.2559 13.9413C60.7384 13.9413 60.2745 14.0581 59.8643 14.2917C59.454 14.519 59.129 14.8315 58.8891 15.2292C58.6493 15.6206 58.5231 16.0657 58.5105 16.5644V19.3011C58.5105 19.8946 58.6272 20.4154 58.8607 20.8636C59.0943 21.3056 59.4256 21.6496 59.8548 21.8958C60.284 22.142 60.7952 22.2652 61.3885 22.2652C61.7987 22.2652 62.1711 22.2083 62.5056 22.0947C62.8401 21.9811 63.1273 21.8138 63.3671 21.5928C63.607 21.3718 63.7868 21.1004 63.9068 20.7784L68.1575 20.9015C67.9808 21.8548 67.5927 22.685 66.9931 23.392C66.3998 24.0928 65.6203 24.6389 64.6547 25.0303C63.689 25.4154 62.5719 25.6079 61.3033 25.6079Z" fill="#2B823F"/>
<path d="M42.9903 30.7879C42.4349 30.7879 41.911 30.7437 41.4187 30.6553C40.9264 30.5733 40.5036 30.4628 40.1501 30.3239L41.1726 26.9622C41.627 27.1137 42.0372 27.2021 42.4033 27.2273C42.7757 27.2526 43.0944 27.1926 43.3595 27.0474C43.6309 26.9085 43.8392 26.6591 43.9843 26.2993L44.1642 25.8637L38.9951 10.788H43.8423L46.5215 21.1667H46.673L49.3901 10.788H54.2657L48.7842 26.7254C48.5191 27.5209 48.1436 28.2216 47.6576 28.8277C47.1779 29.4401 46.5563 29.9199 45.7926 30.2671C45.0352 30.6143 44.1011 30.7879 42.9903 30.7879Z" fill="#2B823F"/>
<path d="M90.2339 16.2222C91.0379 17.6956 90.8338 20.5972 89.3446 21.3325C87.728 22.1085 84.9013 21.3325 83.7438 19.5579C85.3456 19.5547 86.3493 19.2618 87.568 18.8888C88.9003 18.2214 89.774 17.3222 90.2339 16.2222Z" fill="#29813F"/>
<path d="M29.0645 15.169C29.0645 14.9225 29.0868 14.7432 28.9302 14.5415C28.6618 14.1829 28.3486 13.8468 28.0354 13.533C27.5433 13.0848 26.8945 12.7262 26.3129 12.4348C25.0154 11.7849 23.6285 11.3366 22.2192 11.0229C19.2663 10.3729 16.1792 10.2609 13.1592 10.3953C11.9289 10.4626 10.6985 10.5298 9.4905 10.7539C9.02072 10.8436 8.55095 10.9332 8.10354 11.0901C7.6114 11.247 7.09688 11.4263 6.69422 11.74C6.56 11.8297 6.44814 11.9418 6.33629 12.0538C6.24681 12.1659 6.15733 12.3003 6.09022 12.4348C6.02311 12.5469 5.93363 12.6589 5.88889 12.7934C5.84415 12.9055 5.82178 12.9951 5.82178 13.0848C5.82178 13.1968 5.86652 13.2865 5.86652 13.3761C5.86652 13.3985 6.56 13.4658 6.62711 13.4882C6.89555 13.533 7.16399 13.5554 7.43243 13.5778C8.41673 13.6899 9.42339 13.7795 10.4077 13.8692C12.4657 14.0485 14.5462 14.2502 16.6266 14.4295C18.6176 14.6088 20.5861 14.7656 22.5771 14.9673C24.5904 15.169 26.5814 15.438 28.6171 15.3932C28.7289 15.3932 28.8631 15.3932 28.975 15.3932C29.1316 15.3932 29.0645 15.3259 29.0645 15.169ZM11.1182 12.2223C10.7827 12.424 10.6735 12.4445 10.3406 12.7486C9.78131 13.3313 8.79702 13.0175 8.0588 12.9503C7.94695 12.9503 7.8351 12.9279 7.70088 12.9055C7.56666 12.883 7.34295 12.9279 7.36532 12.7934C7.36532 12.6141 7.41006 12.4796 7.47718 12.3003C7.56666 12.0986 7.92458 12.009 8.12591 11.9193C8.39436 11.8073 8.6628 11.7176 8.95361 11.6504C10.005 11.359 11.1235 11.1798 12.2197 11.2022C12.2644 11.2022 12.3091 11.2022 12.3539 11.2022C11.9289 11.4935 11.563 11.955 11.1182 12.2223Z" fill="#29813F"/>
<path d="M6.04665 4.52717C4.90577 4.45993 3.89911 3.36176 4.01096 2.21876C4.14518 0.986116 5.39791 0.112059 6.56117 0C6.11376 0.717175 5.37554 1.32229 5.15184 2.17394C4.90577 3.048 5.57687 3.85482 6.04665 4.52717Z" fill="#29813F"/>
<path d="M7.25342 9.20716C7.85741 7.72799 8.88645 6.47293 9.51281 4.99376C9.84837 4.20935 9.96022 3.42494 9.19963 2.88705C8.618 2.46123 7.92452 2.23711 7.27579 1.99058C8.08112 1.65441 9.13252 1.632 9.93785 1.99058C10.8998 2.41641 11.4367 3.40252 11.3024 4.43346C11.1682 5.57646 10.4747 6.6074 9.69177 7.43664C8.97593 8.15381 8.14823 8.78134 7.25342 9.20716Z" fill="#29813F"/>
<path d="M3.69708 14.945C1.57191 14.833 -0.665116 12.8383 0.184954 10.5747C0.900801 8.66974 3.22731 7.52674 5.10641 7.28021C4.05501 8.51286 2.51146 9.43174 1.75087 10.9109C0.945542 12.5246 2.66805 13.9365 3.69708 14.945Z" fill="#29813F"/>
<path d="M20.4077 10.0368L16.1574 9.61095C15.8889 9.58854 15.6876 9.34201 15.7323 9.07307L15.8889 7.45942C15.9113 7.19048 16.1574 6.98877 16.4258 7.0336L20.6761 7.45942C20.9446 7.48183 21.1459 7.72836 21.1012 7.9973L20.9446 9.61095C20.9222 9.87989 20.6761 10.0592 20.4077 10.0368Z" fill="#2B823F"/>
<path d="M32.0182 19.2029L31.9735 18.7323C31.9064 18.1495 31.3919 17.7237 30.8102 17.791L28.1929 18.0599C28.1705 17.6565 27.8574 17.3203 27.4547 17.3203H6.56088C6.15822 17.3203 5.82267 17.6565 5.82267 18.0823V18.4857L3.36194 18.2392C2.78031 18.172 2.2658 18.5978 2.19869 19.1805L2.15395 19.6511C2.08684 20.2338 2.51187 20.7493 3.0935 20.8165L5.82267 21.1079V21.5561V22.1388V28.4365C5.82267 30.4088 6.96355 32 8.37287 32H25.6427C27.052 32 28.1929 30.4088 28.1929 28.4365V22.1388V21.5561V20.6597L31.0563 20.3683C31.6379 20.3235 32.063 19.7856 32.0182 19.2029ZM12.3995 30.2967H9.37954C9.35717 30.2967 9.3348 30.2967 9.31243 30.2967H9.26768C8.3505 30.2967 7.61229 29.3778 7.61229 28.2348V22.0492C7.61229 21.982 7.61229 21.9371 7.61229 21.8699V20.5476C7.61229 20.2338 7.88073 19.9649 8.19391 19.9649H9.26768H9.31243H9.37954H11.5271H12.3995V30.2967Z" fill="#2B823F"/>
</svg>
