<svg width="14" height="14" viewBox="0 0 14 14" fill="none" xmlns="http://www.w3.org/2000/svg">
<path d="M11.8106 0.69569L11.941 0.565315C12.0391 0.467242 12.1556 0.389458 12.2838 0.336404C12.412 0.283349 12.5493 0.256063 12.6881 0.256104C12.8268 0.256144 12.9642 0.283511 13.0924 0.33664C13.2205 0.38977 13.337 0.467623 13.435 0.565753C13.5331 0.663883 13.6109 0.780369 13.6639 0.908561C13.717 1.03675 13.7443 1.17414 13.7442 1.31287C13.7442 1.45161 13.7168 1.58898 13.6637 1.71714C13.6106 1.8453 13.5327 1.96174 13.4346 2.05982L13.3042 2.18932C13.5272 2.43944 13.6461 2.76541 13.6365 3.10039C13.6269 3.43537 13.4896 3.75399 13.2526 3.99094L4.24709 12.9973C4.19079 13.0533 4.12032 13.0929 4.04321 13.1119L0.543214 13.9869C0.46997 14.0052 0.393253 14.0042 0.32052 13.984C0.247788 13.9638 0.181514 13.9251 0.128141 13.8718C0.0747678 13.8184 0.0361114 13.7521 0.0159291 13.6794C-0.00425309 13.6067 -0.00527456 13.5299 0.012964 13.4567L0.887964 9.95669C0.907109 9.8799 0.946724 9.80974 1.00259 9.75369L9.43934 1.31694C9.35496 1.25755 9.25231 1.2299 9.14952 1.23887C9.04673 1.24783 8.95041 1.29284 8.87759 1.36594L5.99709 4.24732C5.95641 4.28799 5.90812 4.32026 5.85497 4.34227C5.80183 4.36429 5.74486 4.37562 5.68734 4.37562C5.62981 4.37562 5.57285 4.36429 5.5197 4.34227C5.46656 4.32026 5.41827 4.28799 5.37759 4.24732C5.33691 4.20664 5.30465 4.15835 5.28263 4.1052C5.26062 4.05205 5.24929 3.99509 5.24929 3.93757C5.24929 3.88004 5.26062 3.82308 5.28263 3.76993C5.30465 3.71678 5.33691 3.66849 5.37759 3.62782L8.25984 0.747315C8.49694 0.510204 8.81581 0.372834 9.15099 0.363396C9.48618 0.353959 9.81227 0.47317 10.0623 0.696565C10.3028 0.481699 10.6139 0.362851 10.9363 0.362689C11.2587 0.362528 11.57 0.481065 11.8106 0.69569V0.69569ZM11.2471 1.36594C11.165 1.28392 11.0538 1.23785 10.9378 1.23785C10.8218 1.23785 10.7105 1.28392 10.6285 1.36594L1.70609 10.2866L1.03759 12.9614L3.71246 12.2929L12.6348 3.37232C12.6756 3.33168 12.7079 3.2834 12.73 3.23024C12.752 3.17709 12.7634 3.12011 12.7634 3.06257C12.7634 3.00502 12.752 2.94804 12.73 2.89489C12.7079 2.84173 12.6756 2.79346 12.6348 2.75282L11.248 1.36594H11.2471Z" fill="black" fill-opacity="0.8"/>
</svg>
