<svg width="16" height="16" viewBox="0 0 16 16" fill="none" xmlns="http://www.w3.org/2000/svg">
    <path d="M12.6967 4.9349C12.9487 4.6829 13.0874 4.34823 13.0874 3.99223C13.0874 3.63623 12.9487 3.30156 12.6967 3.04956L11.6394 1.99223C11.3874 1.74023 11.0527 1.60156 10.6967 1.60156C10.3407 1.60156 10.0061 1.74023 9.75475 1.99156L2.66675 9.05756V12.0009H5.60875L12.6967 4.9349ZM10.6967 2.9349L11.7547 3.99156L10.6947 5.04756L9.63742 3.9909L10.6967 2.9349ZM4.00008 10.6676V9.6109L8.69341 4.93223L9.75075 5.98956L5.05808 10.6676H4.00008ZM2.66675 13.3342H13.3334V14.6676H2.66675V13.3342Z"
          fill="currentColor"/>
</svg>
