<svg width="12" height="12" viewBox="0 0 12 12" fill="none" xmlns="http://www.w3.org/2000/svg">
<path d="M12 6C12 7.5913 11.3679 9.11742 10.2426 10.2426C9.11742 11.3679 7.5913 12 6 12C4.4087 12 2.88258 11.3679 1.75736 10.2426C0.632141 9.11742 0 7.5913 0 6C0 4.4087 0.632141 2.88258 1.75736 1.75736C2.88258 0.632141 4.4087 0 6 0C7.5913 0 9.11742 0.632141 10.2426 1.75736C11.3679 2.88258 12 4.4087 12 6ZM6.375 3.375C6.375 3.27554 6.33549 3.18016 6.26517 3.10984C6.19484 3.03951 6.09946 3 6 3C5.90054 3 5.80516 3.03951 5.73484 3.10984C5.66451 3.18016 5.625 3.27554 5.625 3.375V5.625H3.375C3.27554 5.625 3.18016 5.66451 3.10984 5.73484C3.03951 5.80516 3 5.90054 3 6C3 6.09946 3.03951 6.19484 3.10984 6.26517C3.18016 6.33549 3.27554 6.375 3.375 6.375H5.625V8.625C5.625 8.72446 5.66451 8.81984 5.73484 8.89017C5.80516 8.96049 5.90054 9 6 9C6.09946 9 6.19484 8.96049 6.26517 8.89017C6.33549 8.81984 6.375 8.72446 6.375 8.625V6.375H8.625C8.72446 6.375 8.81984 6.33549 8.89017 6.26517C8.96049 6.19484 9 6.09946 9 6C9 5.90054 8.96049 5.80516 8.89017 5.73484C8.81984 5.66451 8.72446 5.625 8.625 5.625H6.375V3.375Z" fill="#2DB100"/>
</svg>
