<svg width="18" height="18" viewBox="0 0 18 18" fill="none" xmlns="http://www.w3.org/2000/svg">
    <path d="M13.2108 11.6371C14.3001 10.1506 14.788 8.30766 14.5769 6.47691C14.3657 4.64615 13.4711 2.96262 12.072 1.76313C10.6729 0.563649 8.87248 -0.0633329 7.03095 0.00762436C5.18942 0.0785817 3.44259 0.842245 2.13994 2.14583C0.837281 3.44942 0.0748669 5.1968 0.00522735 7.03838C-0.0644122 8.87995 0.563858 10.6799 1.76434 12.0782C2.96483 13.4764 4.649 14.3698 6.47991 14.5796C8.31082 14.7895 10.1534 14.3003 11.6391 13.2099H11.638C11.6718 13.2549 11.7078 13.2976 11.7483 13.3392L16.0795 17.6705C16.2905 17.8816 16.5766 18.0002 16.875 18.0003C17.1735 18.0004 17.4597 17.882 17.6708 17.6711C17.8819 17.4601 18.0006 17.1739 18.0007 16.8755C18.0008 16.5771 17.8823 16.2908 17.6714 16.0797L13.3401 11.7485C13.2999 11.7078 13.2567 11.6702 13.2108 11.636V11.6371ZM13.501 7.31261C13.501 8.12517 13.341 8.92976 13.03 9.68047C12.7191 10.4312 12.2633 11.1133 11.6887 11.6878C11.1142 12.2624 10.4321 12.7182 9.68136 13.0291C8.93066 13.3401 8.12606 13.5001 7.31351 13.5001C6.50096 13.5001 5.69636 13.3401 4.94566 13.0291C4.19495 12.7182 3.51285 12.2624 2.93829 11.6878C2.36372 11.1133 1.90796 10.4312 1.59701 9.68047C1.28605 8.92976 1.12601 8.12517 1.12601 7.31261C1.12601 5.67159 1.77791 4.09777 2.93829 2.93739C4.09867 1.77701 5.67248 1.12511 7.31351 1.12511C8.95454 1.12511 10.5284 1.77701 11.6887 2.93739C12.8491 4.09777 13.501 5.67159 13.501 7.31261V7.31261Z"
          fill="currentColor"/>
</svg>
