<svg width="12" height="12" viewBox="0 0 12 12" fill="none" xmlns="http://www.w3.org/2000/svg">
<path d="M4.5 6C5.09674 6 5.66903 5.76295 6.09099 5.34099C6.51295 4.91903 6.75 4.34674 6.75 3.75C6.75 3.15326 6.51295 2.58097 6.09099 2.15901C5.66903 1.73705 5.09674 1.5 4.5 1.5C3.90326 1.5 3.33097 1.73705 2.90901 2.15901C2.48705 2.58097 2.25 3.15326 2.25 3.75C2.25 4.34674 2.48705 4.91903 2.90901 5.34099C3.33097 5.76295 3.90326 6 4.5 6V6ZM6 3.75C6 4.14782 5.84196 4.52936 5.56066 4.81066C5.27936 5.09196 4.89782 5.25 4.5 5.25C4.10218 5.25 3.72064 5.09196 3.43934 4.81066C3.15804 4.52936 3 4.14782 3 3.75C3 3.35218 3.15804 2.97064 3.43934 2.68934C3.72064 2.40804 4.10218 2.25 4.5 2.25C4.89782 2.25 5.27936 2.40804 5.56066 2.68934C5.84196 2.97064 6 3.35218 6 3.75V3.75ZM9 9.75C9 10.5 8.25 10.5 8.25 10.5H0.75C0.75 10.5 0 10.5 0 9.75C0 9 0.75 6.75 4.5 6.75C8.25 6.75 9 9 9 9.75ZM8.25 9.747C8.24925 9.5625 8.1345 9.0075 7.626 8.499C7.137 8.01 6.21675 7.5 4.5 7.5C2.7825 7.5 1.863 8.01 1.374 8.499C0.8655 9.0075 0.7515 9.5625 0.75 9.747H8.25Z" fill="black"/>
<path fill-rule="evenodd" clip-rule="evenodd" d="M11.8905 3.85944C11.9254 3.89427 11.9531 3.93565 11.972 3.98121C11.9909 4.02677 12.0007 4.07561 12.0007 4.12494C12.0007 4.17426 11.9909 4.2231 11.972 4.26866C11.9531 4.31422 11.9254 4.3556 11.8905 4.39044L9.64049 6.64044C9.60565 6.67536 9.56427 6.70307 9.51871 6.72197C9.47315 6.74088 9.42431 6.75061 9.37499 6.75061C9.32566 6.75061 9.27682 6.74088 9.23126 6.72197C9.1857 6.70307 9.14432 6.67536 9.10949 6.64044L7.98449 5.51544C7.91407 5.44502 7.87451 5.34952 7.87451 5.24994C7.87451 5.15036 7.91407 5.05485 7.98449 4.98444C8.0549 4.91402 8.1504 4.87446 8.24999 4.87446C8.34957 4.87446 8.44507 4.91402 8.51549 4.98444L9.37499 5.84469L11.3595 3.85944C11.3943 3.82452 11.4357 3.79681 11.4813 3.7779C11.5268 3.759 11.5757 3.74927 11.625 3.74927C11.6743 3.74927 11.7232 3.759 11.7687 3.7779C11.8143 3.79681 11.8557 3.82452 11.8905 3.85944V3.85944Z" fill="black"/>
</svg>
